<svg width="24" height="24" viewBox="0 0 24 24" fill="none" xmlns="http://www.w3.org/2000/svg">
<g id="editor">
<g id="draw-pencil">
<path id="Icon" d="M15 7.50002L17.5 10M7.5 20L19.25 8.25002C19.9404 7.55967 19.9404 6.44038 19.25 5.75002C18.5596 5.05967 17.4404 5.05967 16.75 5.75002L5 17.5V20H7.5ZM7.5 20H15.8787C17.0503 20 18 19.0503 18 17.8787C18 17.3161 17.7765 16.7765 17.3787 16.3787L17 16M4.5 5.00002C6.5 3.00002 10 4.00002 10 6.00002C10 8.50006 4 8.50006 4 11.0001C4 11.876 4.53314 12.5256 5.22583 13.0001" stroke="currentColor" stroke-width="2" stroke-linecap="round" stroke-linejoin="round"/>
</g>
</g>
</svg>
