<svg width="24" height="24" viewBox="0 0 24 24" fill="none" xmlns="http://www.w3.org/2000/svg">
<g id="maps and nature">
<g id="store">
<path id="Icon" d="M20 11.6211V18C20 19.1046 19.1046 20 18 20H6C4.89543 20 4 19.1046 4 18V11.6211M16 4L16.5 9.75C16.5 10.9926 17.5074 12 18.75 12C19.906 12 20.8584 11.1282 20.9856 10.0062C21.0048 9.83688 20.9782 9.66657 20.9352 9.50173L19.89 5.49516C19.6603 4.6145 18.8649 4 17.9548 4H6.04519C5.13506 4 4.3397 4.6145 4.10996 5.49516L3.06477 9.50173C3.02176 9.66657 2.99524 9.83688 3.01442 10.0062C3.14157 11.1282 4.09397 12 5.25 12C6.49264 12 7.5 10.9926 7.5 9.75M8 4L7.5 9.75C7.5 10.9926 8.50736 12 9.75 12C10.9926 12 12 10.9926 12 9.75M12 9.75C12 10.9926 13.0074 12 14.25 12C15.4926 12 16.5 10.9926 16.5 9.75M12 9.75V4" stroke="currentColor" stroke-width="2" stroke-linecap="round" stroke-linejoin="round"/>
</g>
</g>
</svg>
