<svg width="24" height="24" viewBox="0 0 24 24" fill="none" xmlns="http://www.w3.org/2000/svg">
<g id="hardware and system">
<g id="plug">
<path id="Icon" d="M9 8H8C7.44772 8 7 8.44772 7 9V12.3333C7 12.7661 7.14036 13.1871 7.4 13.5333L9.6 16.4667C9.85964 16.8129 10 17.2339 10 17.6667V19C10 20.1046 10.8954 21 12 21C13.1046 21 14 20.1046 14 19V17.6667C14 17.2339 14.1404 16.8129 14.4 16.4667L16.6 13.5333C16.8596 13.1871 17 12.7661 17 12.3333V9C17 8.44772 16.5523 8 16 8H15M9 8V4M9 8H15M15 8V4" stroke="currentColor" stroke-width="2" stroke-linecap="round" stroke-linejoin="round"/>
</g>
</g>
</svg>
